<svg width="100" height="80" viewBox="0 0 100 80" fill="none" xmlns="http://www.w3.org/2000/svg">
<path fill-rule="evenodd" clip-rule="evenodd" d="M44.9599 45C44.9899 45.15 45.9441 58.3 36.5125 68.54C29.5037 76.145 18.8982 80 4.99555 80H0V65.9L4.01143 65.1C10.9103 63.72 15.691 60.985 18.2288 56.98C19.5284 54.8753 20.2663 52.4719 20.3718 50H4.99555C2.23658 50 0 47.7614 0 45V10C0 4.485 4.48101 0 9.9911 0H39.9644C42.7234 0 44.9599 2.23858 44.9599 5V45ZM99.9603 45C99.9903 45.15 100.939 58.3 91.5128 68.54C84.504 76.145 73.8983 80 59.9956 80H55V65.9L59.0115 65.1C65.9104 63.72 70.6912 60.985 73.2289 56.98C74.5285 54.8753 75.2665 52.4719 75.372 50H59.9956C57.2366 50 55 47.7614 55 45V10C55 4.485 59.481 0 64.9912 0H94.9647C97.7237 0 99.9603 2.23858 99.9603 5V45Z" fill="#494A69"/>
</svg>
