<svg width="14" height="9" viewBox="0 0 14 9" fill="none" xmlns="http://www.w3.org/2000/svg">
<path fill-rule="evenodd" clip-rule="evenodd" d="M14 4.5C14 4.2239 13.7762 4.00007 13.5 4.00007H1.70778L4.85458 0.854521C4.98105 0.728067 5.03044 0.543756 4.98415 0.371017C4.93786 0.198278 4.80292 0.0633529 4.63017 0.0170676C4.45742 -0.0292178 4.27309 0.0201681 4.14663 0.146622L0.146884 4.14605C0.0528487 4.23984 0 4.36719 0 4.5C0 4.63281 0.0528487 4.76016 0.146884 4.85395L4.14663 8.85338C4.27309 8.97983 4.45742 9.02922 4.63017 8.98293C4.80292 8.93665 4.93786 8.80172 4.98415 8.62898C5.03044 8.45624 4.98105 8.27193 4.85458 8.14548L1.70778 4.99993H13.5C13.7762 4.99993 14 4.7761 14 4.5Z" fill="white"/>
</svg>
