<svg width="14" height="9" viewBox="0 0 14 9" fill="none" xmlns="http://www.w3.org/2000/svg">
<path fill-rule="evenodd" clip-rule="evenodd" d="M0 4.5C0 4.2239 0.223843 4.00007 0.499968 4.00007H12.2922L9.14542 0.854512C8.94992 0.65903 8.94992 0.342092 9.14542 0.146611C9.34091 -0.0488703 9.65788 -0.0488703 9.85337 0.146611L13.8531 4.14605C13.9472 4.23984 14 4.36719 14 4.5C14 4.63281 13.9472 4.76016 13.8531 4.85395L9.85337 8.85339C9.65788 9.04887 9.34091 9.04887 9.14542 8.85339C8.94992 8.65791 8.94992 8.34097 9.14542 8.14549L12.2922 4.99993H0.499968C0.223843 4.99993 0 4.7761 0 4.5Z" fill="white"/>
</svg>
