<svg width="16" height="16" viewBox="0 0 16 16" fill="none" xmlns="http://www.w3.org/2000/svg">
<path fill-rule="evenodd" clip-rule="evenodd" d="M8 16C12.4183 16 16 12.4183 16 8C16 3.58172 12.4183 0 8 0C3.58172 0 0 3.58172 0 8C0 12.4183 3.58172 16 8 16ZM7.44545 3C7.69147 3 7.89091 3.21083 7.89091 3.47091V8.37778L10.7846 10.1258C10.9917 10.2579 11.0613 10.5406 10.9412 10.7626C10.8212 10.9847 10.5555 11.0649 10.3427 10.9433L7.22451 9.05965C7.08573 8.97585 7.00005 8.81987 7 8.65091V3.47091C7 3.21083 7.19944 3 7.44545 3Z" fill="#EF6D58"/>
</svg>
